<svg aria-hidden="true" style="position: absolute; width: 0; height: 0; overflow: hidden;" version="1.1" xmlns="http://www.w3.org/2000/svg" xmlns:xlink="http://www.w3.org/1999/xlink">
<defs>
<symbol id="icon-avito" viewBox="0 0 92 32">
<title>Avito</title>
<path fill="#97cf26" style="fill: var(--color1, #97cf26)" d="M27.743 21.3c0 3.543-2.872 6.414-6.414 6.414s-6.414-2.872-6.414-6.414c0-3.543 2.872-6.414 6.414-6.414s6.414 2.872 6.414 6.414z"></path>
<path fill="#a169f7" style="fill: var(--color2, #a169f7)" d="M12.257 21.3c0 1.649-1.337 2.986-2.986 2.986s-2.986-1.337-2.986-2.986c0-1.649 1.337-2.986 2.986-2.986s2.986 1.337 2.986 2.986z"></path>
<path fill="#ff6163" style="fill: var(--color3, #ff6163)" d="M25.457 9.243c0 2.28-1.848 4.129-4.129 4.129s-4.129-1.848-4.129-4.129c0-2.28 1.848-4.129 4.129-4.129s4.129 1.848 4.129 4.129z"></path>
<path fill="#0af" style="fill: var(--color4, #0af)" d="M14.543 9.243c0 2.911-2.36 5.271-5.271 5.271s-5.271-2.36-5.271-5.271c0-2.911 2.36-5.271 5.271-5.271s5.271 2.36 5.271 5.271z"></path>
<path fill="#000" style="fill: var(--color5, #000)" d="M44.419 24.251h3.33l-6.167-16.791h-2.415l-6.168 16.791h3.33l1.178-3.205h5.734l1.178 3.205-5.985-5.732 1.94-5.28 1.939 5.28h-3.879zM56.003 12.787l-3.064 8.341-3.063-8.341h-3.129l4.212 11.463h3.959l4.211-11.463h-3.128zM60.439 12.787h3.129v11.463h-3.129v-11.463z"></path>
<path fill="#000" style="fill: var(--color5, #000)" d="M64.029 9.471c0 1.112-0.902 2.014-2.014 2.014s-2.014-0.902-2.014-2.014c0-1.112 0.902-2.014 2.014-2.014s2.014 0.902 2.014 2.014z"></path>
<path fill="#000" style="fill: var(--color5, #000)" d="M74.614 15.314v-2.526h-3.748v-3.162h-3.127v3.162h-2.474v2.526h2.474v4.932c0 2.544 1.272 4.242 4.52 4.242 1.254 0 2.354-0.461 2.354-0.461l-0.38-2.475s-0.616 0.184-1.373 0.184c-0.928 0-1.995-0.4-1.995-1.683v-4.74h3.748zM81.789 21.631c-1.744 0-3.158-1.383-3.158-3.089 0-1.704 1.413-3.087 3.157-3.087 1.745 0 3.158 1.383 3.158 3.088 0 1.706-1.413 3.089-3.157 3.089zM81.789 12.495c-3.391 0-6.141 2.69-6.141 6.006 0 3.317 2.75 6.006 6.141 6.006 3.389 0 6.139-2.689 6.139-6.006 0-3.316-2.75-6.006-6.139-6.006z"></path>
</symbol>
<symbol id="icon-heart" viewBox="0 0 32 32">
<title>heart</title>
<path d="M23.6 2c-3.363 0-6.258 2.736-7.599 5.594-1.342-2.858-4.237-5.594-7.601-5.594-4.637 0-8.4 3.764-8.4 8.401 0 9.433 9.516 11.906 16.001 21.232 6.13-9.268 15.999-12.1 15.999-21.232 0-4.637-3.763-8.401-8.4-8.401z"></path>
</symbol>
</defs>
</svg>
